# xmcd
#
# Track frame offsets: 
#        150
#        31750
#        49935
#        70200
#        90062
#        114462
#        141550
#        167625
#        184307
#        204202
#        222647
#        244127
#
# Disc length: 3500 seconds
#
# Revision: 1
# Processed by: cddbd v1.5.2PL0 Copyright (c) Steve Scherf et al.
# Submitted via: ExactAudioCopyFreeDBPlugin 1.0
#
DISCID=aa0daa0c
DTITLE=Carmen Cuesta - Peace of mind
DYEAR=2003
DGENRE=Country
TTITLE0=Paralelo
TTITLE1=La Bossa De Kris
TTITLE2=Endless Love
TTITLE3=Peace Of Mind
TTITLE4=Bells
TTITLE5=Shape Of My Heart
TTITLE6=Walk
TTITLE7=Too Fast
TTITLE8=Te Perdi
TTITLE9=Here Comes The Sun
TTITLE10=Ters Of Joy
TTITLE11=Unknown
EXTD=Hifi-Kemper
EXTT0=
EXTT1=
EXTT2=
EXTT3=
EXTT4=
EXTT5=
EXTT6=
EXTT7=
EXTT8=
EXTT9=
EXTT10=
EXTT11=
PLAYORDER=
